<?xml version="1.0" encoding="UTF-8" standalone="no"?>
<!-- Created with Inkscape (http://www.inkscape.org/) -->

<svg
   width="287"
   height="110"
   viewBox="0 0 75.935414 29.104166"
   version="1.1"
   id="svg1"
   xmlns="http://www.w3.org/2000/svg"
   xmlns:svg="http://www.w3.org/2000/svg">
  <defs
     id="defs1" />
  <g
     id="layer1"
     style="display:inline">
    <text
       xml:space="preserve"
       style="font-style:normal;font-variant:normal;font-weight:900;font-stretch:normal;font-size:16.9333px;line-height:0;font-family:Outfit;-inkscape-font-specification:'Outfit Heavy';text-align:center;letter-spacing:2.11667px;word-spacing:0.00264583px;text-anchor:middle;fill:#593839;fill-opacity:0.996078;stroke:none;stroke-width:0.132292"
       x="27.144104"
       y="16.946056"
       id="text9"><tspan
         style="fill:#993a3d;fill-opacity:0.996078;stroke:none;stroke-width:0.132292"
         x="28.20244"
         y="16.946056"
         id="tspan10">cedar</tspan></text>
    <path
       style="font-weight:900;font-size:16.9333px;line-height:0;font-family:Outfit;-inkscape-font-specification:'Outfit Heavy';text-align:center;letter-spacing:2.11667px;word-spacing:0.00264583px;text-anchor:middle;fill:#019e3f;fill-opacity:0.996078;stroke-width:0.132292"
       d="m 4.7751915,29.104166 c -0.9031093,0 -1.7159077,-0.186266 -2.4383952,-0.558799 C 1.6143088,28.172834 1.044221,27.659191 0.62653295,27.004437 0.20884488,26.338394 8.4788055e-7,25.587684 8.4788055e-7,24.752308 8.4788055e-7,23.905643 0.20884488,23.154934 0.62653295,22.500179 1.0555098,21.834136 1.6312421,21.314849 2.3537296,20.942316 c 0.7337763,-0.383822 1.5578636,-0.575733 2.4722618,-0.575733 0.6547543,0 1.2417753,0.1016 1.7610632,0.3048 0.5305767,0.203199 1.0216424,0.513643 1.4731971,0.931331 L 5.9774558,23.68551 C 5.8307005,23.550044 5.667012,23.448444 5.4863901,23.380711 c -0.1806219,-0.06773 -0.4007548,-0.1016 -0.6603987,-0.1016 -0.2709328,0 -0.5192879,0.06209 -0.7450652,0.186266 -0.2144885,0.112889 -0.3894659,0.276577 -0.5249323,0.491066 -0.1354664,0.214489 -0.2031996,0.468488 -0.2031996,0.761999 0,0.29351 0.067733,0.553154 0.2031996,0.778931 0.1354664,0.214489 0.3160883,0.383822 0.5418656,0.507999 0.2257773,0.124178 0.468488,0.186267 0.7281319,0.186267 0.2935105,0 0.5362212,-0.04516 0.7281319,-0.135467 0.1919107,-0.09031 0.3612437,-0.214488 0.507999,-0.372532 l 2.0827959,2.082796 c -0.4854213,0.451555 -0.9934203,0.790221 -1.523997,1.015998 -0.5305767,0.214488 -1.14582,0.321732 -1.8457297,0.321732 z m 10.4139735,0 c -0.914398,0 -1.732841,-0.186266 -2.455328,-0.558799 -0.711199,-0.383821 -1.275642,-0.908754 -1.69333,-1.574797 -0.406399,-0.666043 -0.609599,-1.416752 -0.609599,-2.252128 0,-0.835377 0.2032,-1.580442 0.609599,-2.235196 0.406399,-0.654754 0.965198,-1.168397 1.676397,-1.54093 0.722487,-0.383822 1.54093,-0.575733 2.455328,-0.575733 0.914398,0 1.727196,0.191911 2.438395,0.575733 0.711199,0.372533 1.269998,0.886176 1.676397,1.54093 0.417688,0.654754 0.626532,1.399819 0.626532,2.235196 0,0.835376 -0.2032,1.586085 -0.609599,2.252128 -0.406399,0.666043 -0.965197,1.190976 -1.676396,1.574797 -0.711199,0.372533 -1.523997,0.558799 -2.438396,0.558799 z m -0.01693,-2.912527 c 0.282222,0 0.524933,-0.05644 0.728132,-0.169333 0.214489,-0.124178 0.378177,-0.293511 0.491066,-0.507999 0.112889,-0.225777 0.169333,-0.485421 0.169333,-0.778932 0,-0.293511 -0.06209,-0.54751 -0.186267,-0.761999 -0.112889,-0.225777 -0.270933,-0.39511 -0.474132,-0.507999 -0.203199,-0.124177 -0.44591,-0.186266 -0.728132,-0.186266 -0.270933,0 -0.513643,0.06209 -0.728132,0.186266 -0.203199,0.124178 -0.366888,0.299156 -0.491065,0.524933 -0.112889,0.214488 -0.169333,0.468487 -0.169333,0.761998 0,0.282222 0.05644,0.536222 0.169333,0.761999 0.124177,0.214488 0.287866,0.383821 0.491065,0.507999 0.214489,0.112889 0.457199,0.169333 0.728132,0.169333 z m 13.191038,2.709328 v -4.673591 c 0,-0.327377 -0.09596,-0.575732 -0.287867,-0.745065 -0.180621,-0.180622 -0.412043,-0.270933 -0.694265,-0.270933 -0.191911,0 -0.366888,0.03951 -0.524932,0.118533 -0.146755,0.07902 -0.265289,0.197555 -0.3556,0.355599 -0.07902,0.146755 -0.118533,0.327377 -0.118533,0.541866 l -1.28693,-0.575732 c 0,-0.677332 0.146755,-1.258709 0.440265,-1.74413 0.304799,-0.485421 0.716843,-0.857954 1.236131,-1.117598 0.530577,-0.259644 1.128887,-0.389466 1.79493,-0.389466 0.59831,0 1.128887,0.135466 1.59173,0.406399 0.474133,0.259644 0.846665,0.620888 1.117598,1.083731 0.270933,0.451555 0.406399,0.976487 0.406399,1.574797 v 5.43559 z m -5.300123,0 v -8.331184 h 3.318926 v 8.331184 z m 17.458247,0 v -4.673591 c 0,-0.327377 -0.09596,-0.575732 -0.287866,-0.745065 -0.180621,-0.180622 -0.412043,-0.270933 -0.694265,-0.270933 -0.191911,0 -0.366888,0.03951 -0.524932,0.118533 -0.146755,0.07902 -0.265289,0.197555 -0.3556,0.355599 -0.07902,0.146755 -0.118533,0.327377 -0.118533,0.541866 l -1.28693,-0.575732 c 0,-0.677332 0.146755,-1.258709 0.440265,-1.74413 0.304799,-0.485421 0.716843,-0.857954 1.236131,-1.117598 0.530577,-0.259644 1.128887,-0.389466 1.79493,-0.389466 0.59831,0 1.128887,0.135466 1.59173,0.406399 0.474133,0.259644 0.846665,0.620888 1.117598,1.083731 0.270933,0.451555 0.406399,0.976487 0.406399,1.574797 v 5.43559 z m -5.300122,0 v -8.331184 h 3.318926 v 8.331184 z m 16.493047,0.203199 c -0.970842,0 -1.823151,-0.180622 -2.556928,-0.541865 -0.733776,-0.372533 -1.309508,-0.886176 -1.727197,-1.540931 -0.406399,-0.666043 -0.609598,-1.428041 -0.609598,-2.285995 0,-0.846665 0.197555,-1.597375 0.592665,-2.252129 0.406399,-0.654754 0.959554,-1.168397 1.659464,-1.54093 0.699909,-0.383822 1.49013,-0.575733 2.370662,-0.575733 0.869243,0 1.636885,0.180622 2.302928,0.541866 0.666043,0.349955 1.185331,0.84102 1.557864,1.473197 0.383821,0.632177 0.575732,1.354664 0.575732,2.167463 0,0.169333 -0.01129,0.349954 -0.03387,0.541865 -0.01129,0.180622 -0.04515,0.395111 -0.1016,0.643466 l -7.518385,0.0508 v -2.031996 l 6.282254,-0.0508 -1.54093,0.897464 c 0,-0.451555 -0.05644,-0.818443 -0.169333,-1.100664 -0.1016,-0.293511 -0.259644,-0.513644 -0.474133,-0.660399 -0.214489,-0.146755 -0.485421,-0.220133 -0.812798,-0.220133 -0.338666,0 -0.632177,0.08467 -0.880532,0.254 -0.248355,0.169333 -0.440265,0.412043 -0.575732,0.728132 -0.124177,0.316088 -0.186266,0.699909 -0.186266,1.151464 0,0.462843 0.06773,0.852309 0.203199,1.168398 0.146755,0.304799 0.355599,0.536221 0.626532,0.694265 0.270933,0.158044 0.609599,0.237066 1.015998,0.237066 0.395111,0 0.739421,-0.06209 1.032932,-0.186266 0.304799,-0.135467 0.581376,-0.344311 0.829731,-0.626532 l 1.659464,1.64253 c -0.417688,0.474133 -0.920043,0.829732 -1.507064,1.066798 -0.587021,0.237066 -1.258709,0.355599 -2.015063,0.355599 z m 11.497732,0 c -0.903109,0 -1.715908,-0.186266 -2.438396,-0.558799 -0.722487,-0.372533 -1.292575,-0.886176 -1.710263,-1.54093 -0.417688,-0.666043 -0.626532,-1.416753 -0.626532,-2.252129 0,-0.846665 0.208844,-1.597374 0.626532,-2.252129 0.428977,-0.666043 1.004709,-1.18533 1.727197,-1.557863 0.733776,-0.383822 1.557863,-0.575733 2.472261,-0.575733 0.654755,0 1.241776,0.1016 1.761064,0.3048 0.530577,0.203199 1.021642,0.513643 1.473197,0.931331 l -2.082796,2.082796 c -0.146755,-0.135466 -0.310444,-0.237066 -0.491066,-0.304799 -0.180622,-0.06773 -0.400755,-0.1016 -0.660399,-0.1016 -0.270933,0 -0.519288,0.06209 -0.745065,0.186266 -0.214488,0.112889 -0.389465,0.276577 -0.524932,0.491066 -0.135467,0.214489 -0.2032,0.468488 -0.2032,0.761999 0,0.29351 0.06773,0.553154 0.2032,0.778931 0.135467,0.214489 0.316089,0.383822 0.541866,0.507999 0.225777,0.124178 0.468488,0.186267 0.728131,0.186267 0.293511,0 0.536221,-0.04516 0.728132,-0.135467 0.191911,-0.09031 0.361244,-0.214488 0.507999,-0.372532 l 2.082796,2.082796 c -0.485421,0.451555 -0.99342,0.790221 -1.523997,1.015998 -0.530577,0.214488 -1.14582,0.321732 -1.845729,0.321732 z M 70.62884,28.900967 V 17.149256 h 3.318927 v 11.751711 z m -1.777997,-5.621856 v -2.709328 h 6.87492 v 2.709328 z"
       id="text11"
       aria-label="connect" />
    <path
       style="fill:#019e3f;fill-opacity:0.996078;stroke:none;stroke-width:0.185678"
       id="path12"
       d="m 32.361233,-5.3410809 -10.014095,0 5.007047,-8.6724611 z"
       transform="matrix(1,0,0,0.50762706,12.363374,9.4633458)" />
  </g>
  <g
     id="layer2"
     style="display:none">
    <g
       id="g14"
       transform="translate(0.41703289)">
      <path
         d="m 33.435946,17.149256 c -0.903109,0 -1.715907,-0.186266 -2.438395,-0.558799 -0.722487,-0.372532 -1.292575,-0.886176 -1.710263,-1.54093 -0.417688,-0.666043 -0.626532,-1.416753 -0.626532,-2.252129 0,-0.846664 0.208844,-1.597374 0.626532,-2.252129 0.428977,-0.6660417 1.004709,-1.1853297 1.727196,-1.5578617 0.733777,-0.383822 1.557864,-0.575733 2.472262,-0.575733 0.654754,0 1.241775,0.1016 1.761063,0.3048 0.530577,0.203199 1.021643,0.513643 1.473197,0.931331 L 34.638211,11.7306 c -0.146756,-0.135466 -0.310444,-0.237065 -0.491066,-0.304799 -0.180622,-0.06773 -0.400755,-0.1016 -0.660399,-0.1016 -0.270933,0 -0.519288,0.06209 -0.745065,0.186266 -0.214488,0.112889 -0.389466,0.276578 -0.524932,0.491066 -0.135467,0.214489 -0.2032,0.468489 -0.2032,0.761999 0,0.29351 0.06773,0.553154 0.2032,0.778931 0.135466,0.214489 0.316088,0.383822 0.541865,0.507999 0.225778,0.124178 0.468488,0.186267 0.728132,0.186267 0.293511,0 0.536221,-0.04516 0.728132,-0.135467 0.191911,-0.09031 0.361244,-0.214488 0.507999,-0.372532 l 2.082796,2.082796 c -0.485421,0.451555 -0.99342,0.790221 -1.523997,1.015998 -0.530577,0.214488 -1.14582,0.321732 -1.84573,0.321732 z"
         style="font-weight:900;font-size:16.9333px;line-height:0;font-family:Outfit;-inkscape-font-specification:'Outfit Heavy';text-align:center;letter-spacing:2.11667px;word-spacing:0.00264583px;text-anchor:middle;fill:#019e3f;fill-opacity:0.996078;stroke-width:0.132292"
         id="path1" />
      <path
         d="m 27.616974,17.149256 c -0.903109,0 -1.715907,-0.186266 -2.438395,-0.558799 -0.722487,-0.372532 -1.292575,-0.886176 -1.710263,-1.54093 -0.417688,-0.666043 -0.626532,-1.416753 -0.626532,-2.252129 0,-0.846664 0.208844,-1.597374 0.626532,-2.252129 0.428977,-0.6660416 1.004709,-1.1853296 1.727196,-1.5578616 0.733777,-0.383822 1.557864,-0.575733 2.472262,-0.575733 0.654754,0 1.241775,0.1016 1.761063,0.3048 0.530577,0.203199 1.021643,0.513643 1.473197,0.931331 L 28.819239,11.7306 c -0.146756,-0.135466 -0.310444,-0.237065 -0.491066,-0.304799 -0.180622,-0.06773 -0.400755,-0.1016 -0.660399,-0.1016 -0.270933,0 -0.519288,0.06209 -0.745065,0.186266 -0.214488,0.112889 -0.389466,0.276578 -0.524932,0.491066 -0.135467,0.214489 -0.2032,0.468489 -0.2032,0.761999 0,0.29351 0.06773,0.553154 0.2032,0.778931 0.135466,0.214489 0.316088,0.383822 0.541865,0.507999 0.225778,0.124178 0.468488,0.186267 0.728132,0.186267 0.293511,0 0.536221,-0.04516 0.728132,-0.135467 0.191911,-0.09031 0.361244,-0.214488 0.507999,-0.372532 l 2.082796,2.082796 c -0.485421,0.451555 -0.99342,0.790221 -1.523997,1.015998 -0.530577,0.214488 -1.14582,0.321732 -1.84573,0.321732 z"
         style="font-weight:900;font-size:16.9333px;line-height:0;font-family:Outfit;-inkscape-font-specification:'Outfit Heavy';text-align:center;letter-spacing:2.11667px;word-spacing:0.00264583px;text-anchor:middle;fill:#993a3d;fill-opacity:1;stroke-width:0.132292"
         id="path1-7" />
    </g>
    <path
       style="display:inline;fill:#019e3f;fill-opacity:0.996078;stroke:none;stroke-width:0.185678"
       id="path12-1"
       d="m 32.361233,-5.3410809 -10.014095,0 5.007047,-8.6724611 z"
       transform="matrix(1,0,0,0.50762707,0.7306218,11.122952)" />
  </g>
</svg>
